<svg width="56" height="67" viewBox="0 0 56 67" xmlns="http://www.w3.org/2000/svg"><title>checklist</title><g stroke="#E76A5A" fill="none" fill-rule="evenodd"><rect stroke-width="2" y="2.792" width="56" height="64.208" rx="2"/><ellipse stroke-width="2" cx="14" cy="13.958" rx="5.6" ry="5.583"/><rect stroke-width="2" fill="#FFF" x="12.6" width="2.8" height="12.563" rx="2"/><rect stroke-width="2" fill="#FFF" x="26.6" width="2.8" height="12.563" rx="2"/><rect stroke-width="2" fill="#FFF" x="40.6" width="2.8" height="12.563" rx="2"/><ellipse stroke-width="2" cx="42" cy="13.958" rx="5.6" ry="5.583"/><ellipse stroke-width="2" cx="28" cy="13.958" rx="5.6" ry="5.583"/><rect x="8.4" y="27.917" width="5.6" height="5.583" rx="2"/><rect x="8.4" y="36.292" width="5.6" height="5.583" rx="2"/><rect x="8.4" y="44.667" width="5.6" height="5.583" rx="2"/><rect x="8.4" y="53.042" width="5.6" height="5.583" rx="2"/><path stroke-width="2" fill="#FFF" d="M19.6 29.313h28v2.792h-28zM19.6 37.688h28v2.792h-28zM19.6 46.063h28v2.792h-28zM19.6 54.438h28v2.792h-28z"/></g></svg>