<?xml version="1.0" encoding="UTF-8" standalone="no"?>
<svg width="48px" height="48px" viewBox="0 0 48 48" version="1.1" xmlns="http://www.w3.org/2000/svg" xmlns:xlink="http://www.w3.org/1999/xlink" xmlns:sketch="http://www.bohemiancoding.com/sketch/ns">
    <!-- Generator: Sketch 3.3.3 (12081) - http://www.bohemiancoding.com/sketch -->
    <title>Path 60 + Oval 61</title>
    <desc>Created with Sketch.</desc>
    <defs></defs>
    <g id="Page-1" stroke="none" stroke-width="1" fill="none" fill-rule="evenodd" sketch:type="MSPage">
        <g id="Get-started" sketch:type="MSArtboardGroup" transform="translate(-827.000000, -493.000000)" stroke="#E76A5A" stroke-width="2">
            <g id="WHAT-YOU-GET" sketch:type="MSLayerGroup" transform="translate(525.000000, 163.000000)">
                <g id="Tag" transform="translate(33.000000, 330.000000)" sketch:type="MSShapeGroup">
                    <g id="Path-60-+-Oval-61" transform="translate(269.000000, 0.000000)">
                        <path d="M3.31593919e-16,1.991155 C1.48459654e-16,0.891470458 0.889673948,0 1.991155,0 L20.008845,0 C21.1085295,0 22.6298174,0.629817415 23.416337,1.41633702 L46.583663,24.583663 C47.3658843,25.3658843 47.3653088,26.6346912 46.5903341,27.4096659 L27.4096659,46.5903341 C26.6311289,47.3688711 25.3701826,47.3701826 24.583663,46.583663 L1.41633702,23.416337 C0.634115685,22.6341157 3.51557551e-15,21.1103261 3.33214206e-15,20.008845 L3.31593919e-16,1.991155 Z" id="Path-60"></path>
                        <circle id="Oval-61" cx="10" cy="10" r="4"></circle>
                    </g>
                </g>
            </g>
        </g>
    </g>
</svg>