<?xml version="1.0" encoding="UTF-8" standalone="no"?>
<svg width="56px" height="67px" viewBox="0 0 56 67" version="1.1" xmlns="http://www.w3.org/2000/svg" xmlns:xlink="http://www.w3.org/1999/xlink" xmlns:sketch="http://www.bohemiancoding.com/sketch/ns">
    <!-- Generator: Sketch 3.3.3 (12081) - http://www.bohemiancoding.com/sketch -->
    <title>checklist</title>
    <desc>Created with Sketch.</desc>
    <defs></defs>
    <g id="Page-1" stroke="none" stroke-width="1" fill="none" fill-rule="evenodd" sketch:type="MSPage">
        <g id="Get-started" sketch:type="MSArtboardGroup" transform="translate(-558.000000, -361.000000)" stroke="#E76A5A">
            <g id="WHAT-YOU-GET" sketch:type="MSLayerGroup" transform="translate(525.000000, 163.000000)">
                <g id="checklist-+-Checklist-of-tasks-a" transform="translate(33.000000, 198.000000)" sketch:type="MSShapeGroup">
                    <g id="checklist">
                        <rect id="Rectangle-205" stroke-width="2" x="0" y="2.79166667" width="56" height="64.2083333" rx="2"></rect>
                        <ellipse id="Oval-54" stroke-width="2" cx="14" cy="13.9583333" rx="5.6" ry="5.58333333"></ellipse>
                        <rect id="Rectangle-206" stroke-width="2" fill="#FFFFFF" x="12.6" y="0" width="2.8" height="12.5625" rx="2"></rect>
                        <rect id="Rectangle-207" stroke-width="2" fill="#FFFFFF" x="26.6" y="0" width="2.8" height="12.5625" rx="2"></rect>
                        <rect id="Rectangle-208" stroke-width="2" fill="#FFFFFF" x="40.6" y="0" width="2.8" height="12.5625" rx="2"></rect>
                        <ellipse id="Oval-55" stroke-width="2" cx="42" cy="13.9583333" rx="5.6" ry="5.58333333"></ellipse>
                        <ellipse id="Oval-56" stroke-width="2" cx="28" cy="13.9583333" rx="5.6" ry="5.58333333"></ellipse>
                        <rect id="Rectangle-209" x="8.4" y="27.9166667" width="5.6" height="5.58333333" rx="2"></rect>
                        <rect id="Rectangle-210" x="8.4" y="36.2916667" width="5.6" height="5.58333333" rx="2"></rect>
                        <rect id="Rectangle-211" x="8.4" y="44.6666667" width="5.6" height="5.58333333" rx="2"></rect>
                        <rect id="Rectangle-212" x="8.4" y="53.0416667" width="5.6" height="5.58333333" rx="2"></rect>
                        <rect id="Rectangle-213" stroke-width="2" fill="#FFFFFF" x="19.6" y="29.3125" width="28" height="2.79166667"></rect>
                        <rect id="Rectangle-214" stroke-width="2" fill="#FFFFFF" x="19.6" y="37.6875" width="28" height="2.79166667"></rect>
                        <rect id="Rectangle-215" stroke-width="2" fill="#FFFFFF" x="19.6" y="46.0625" width="28" height="2.79166667"></rect>
                        <rect id="Rectangle-216" stroke-width="2" fill="#FFFFFF" x="19.6" y="54.4375" width="28" height="2.79166667"></rect>
                    </g>
                </g>
            </g>
        </g>
    </g>
</svg>
